<svg id="Layer_1" data-name="Layer 1" xmlns="http://www.w3.org/2000/svg" viewBox="0 0 200 200"><defs><style>.cls-1{fill:#130f14;}.cls-2{fill:#231f20;}.cls-3,.cls-5{fill:#fff;}.cls-4,.cls-5{fill-rule:evenodd;}</style></defs><title>logo</title><polygon class="cls-1" points="98.73 83.17 99.96 0.74 101.25 83.17 114.75 1.85 103.75 83.54 129.22 5.14 106.16 84.28 143.03 10.56 108.44 85.38 155.88 17.97 110.52 86.8 167.48 27.21 112.37 88.51 177.58 38.09 113.94 90.48 185.94 50.34 115.21 92.67 192.38 63.7 116.13 95.02 196.76 77.88 116.69 97.48 198.97 92.54 116.88 99.99 198.98 107.38 116.69 102.51 196.78 122.05 116.13 104.97 192.41 136.23 115.21 107.32 185.98 149.59 113.95 109.5 177.63 161.85 112.38 111.48 167.54 172.73 110.53 113.19 155.94 181.99 108.45 114.62 143.1 189.41 106.17 115.71 129.29 194.83 103.76 116.46 114.83 198.14 101.27 116.83 100.04 199.25 98.75 116.83 85.25 198.15 96.25 116.46 70.78 194.86 93.84 115.72 56.97 189.44 91.56 114.62 44.12 182.03 89.48 113.2 32.52 172.78 87.63 111.49 22.42 161.91 86.06 109.52 14.06 149.66 84.79 107.33 7.62 136.3 83.87 104.98 3.24 122.12 83.31 102.52 1.02 107.45 83.12 100.01 1.02 92.62 83.31 97.49 3.23 77.95 83.87 95.03 7.59 63.77 84.79 92.68 14.02 50.41 86.05 90.5 22.38 38.15 87.62 88.52 32.46 27.27 89.47 86.81 44.06 18.01 91.55 85.38 56.9 10.59 93.83 84.29 70.71 5.17 96.24 83.54 85.17 1.86 98.73 83.17"/><path class="cls-2" d="M100,200a.74.74,0,0,1-.74-.73l-1.16-74.18L86,198.27a.75.75,0,0,1-1.47-.22l9.91-73.53L71.49,195.09a.74.74,0,0,1-.93.48.75.75,0,0,1-.5-.92l20.75-71.23L57.64,189.77a.74.74,0,0,1-1.34-.64l31.14-67.34L44.73,182.46a.74.74,0,0,1-1.23-.84l40.83-61.95L33.06,173.3a.75.75,0,0,1-1.09-1l49.6-55.17L22.88,162.5a.74.74,0,0,1-.93-1.16l57.27-47.16-64.8,36.13a.74.74,0,0,1-.74-1.29l63.66-38.1L7.88,137a.74.74,0,0,1-.54-1.39L76,107.42,3.4,122.85a.74.74,0,0,1-.33-1.45l72.06-17.64L1.07,108.2a.7.7,0,0,1-.79-.69.74.74,0,0,1,.67-.8L74.85,100,1,93.36a.75.75,0,0,1-.68-.8.7.7,0,0,1,.79-.69l74.06,4.38L3,78.67a.74.74,0,0,1,.33-1.45L76,92.59,7.31,64.46a.74.74,0,0,1,.54-1.39l69.48,26L13.64,51a.74.74,0,0,1,.74-1.29L79.21,85.84,21.9,38.72a.74.74,0,0,1,.93-1.16L81.56,82.9,31.91,27.76a.74.74,0,0,1,1.09-1L84.31,80.34,43.43,18.42a.74.74,0,0,1,1.23-.84L87.42,78.22,56.23,10.9a.74.74,0,0,1,1.34-.65L90.8,76.59,70,5.37a.74.74,0,0,1,1.42-.44l23,70.54L84.43,2a.75.75,0,0,1,1.47-.22L98.11,74.92,99.22.73a.74.74,0,0,1,1.49,0l1.16,74.18L114,1.73a.75.75,0,0,1,1.47.22l-9.91,73.53L128.51,4.91a.74.74,0,0,1,1.42.44L109.18,76.58l33.19-66.36a.74.74,0,0,1,1.34.65L112.57,78.21l42.7-60.67a.74.74,0,0,1,1.23.84L115.67,80.33,166.94,26.7a.75.75,0,0,1,1.09,1l-49.6,55.17L177.12,37.5a.74.74,0,0,1,.93,1.16L120.78,85.82l64.8-36.13a.74.74,0,0,1,.74,1.29l-63.66,38.1L192.12,63a.74.74,0,0,1,.54,1.39L124,92.58,196.6,77.15a.74.74,0,0,1,.33,1.45L124.87,96.24l74.06-4.44a.73.73,0,0,1,.79.69.74.74,0,0,1-.67.8L125.16,100,199,106.64a.74.74,0,0,1,.68.8.72.72,0,0,1-.79.69l-74.06-4.38L197,121.33a.74.74,0,0,1,.55.89.73.73,0,0,1-.88.56L124,107.41l68.65,28.13a.74.74,0,0,1-.54,1.39l-69.48-26L186.36,149a.74.74,0,0,1-.74,1.29l-64.83-36.08,57.31,47.12a.74.74,0,0,1-.93,1.16L118.44,117.1l49.65,55.13a.74.74,0,0,1-1.09,1l-51.31-53.59,40.87,61.92a.74.74,0,0,1-1.23.84l-42.75-60.64,31.19,67.32a.74.74,0,0,1-1.34.65L109.2,123.41,130,194.63a.74.74,0,0,1-1.42.44l-23-70.54,10,73.52a.75.75,0,0,1-1.47.22l-12.21-73.18-1.11,74.18A.74.74,0,0,1,100,200Zm-1.29-83.91h.06a.74.74,0,0,1,.69.73l.53,33.81.5-33.81a.74.74,0,0,1,.69-.73.73.73,0,0,1,.79.62L107.56,150,103,116.56a.74.74,0,0,1,1.45-.33l10.46,32.12-9.48-32.43a.74.74,0,0,1,1.38-.54L122,145.61l-14.21-30.68a.74.74,0,0,1,1.28-.74l19.47,27.62-18.62-28.2a.74.74,0,0,1,1.16-.92l23.36,24.39L111.83,112a.74.74,0,0,1,1-1.09l26.75,20.65-26.11-21.46a.74.74,0,0,1,.84-1.23l29.54,16.45-29-17.34a.74.74,0,0,1,.64-1.34l31.64,11.85-31.27-12.81a.75.75,0,0,1-.43-.91.74.74,0,0,1,.87-.51l33.06,7-32.83-8a.75.75,0,0,1-.56-.83.7.7,0,0,1,.78-.63l33.74,2-33.66-3a.74.74,0,0,1,0-1.48l33.66-3.05-33.74,2a.71.71,0,0,1-.78-.63.75.75,0,0,1,.56-.83l32.81-8-33,7a.73.73,0,0,1-.87-.51.74.74,0,0,1,.43-.91l31.27-12.84L115.47,93.37a.74.74,0,0,1-.64-1.34l29-17.36L114.31,91.13a.74.74,0,0,1-.84-1.23l26.08-21.48L112.83,89.1a.74.74,0,0,1-1-1.09l22.61-25.15L111.06,87.31a.75.75,0,0,1-1.16-.92l18.58-28.2L109,85.81a.74.74,0,0,1-1.29-.74l14.19-30.68L106.83,84.62a.74.74,0,0,1-1.38-.54l9.45-32.45L104.46,83.77a.74.74,0,0,1-1.45-.33l4.51-33.49L102,83.29a.73.73,0,0,1-.79.62.74.74,0,0,1-.69-.73L100,49.37l-.5,33.81a.74.74,0,0,1-.69.73.72.72,0,0,1-.79-.62L92.44,50,97,83.44a.74.74,0,0,1-1.45.33L85.06,51.63l9.48,32.45a.74.74,0,0,1-1.38.54L78,54.42l14.2,30.65a.74.74,0,0,1-1.28.74L71.47,58.19,90.09,86.4a.74.74,0,0,1-1.16.92L65.56,62.91,88.17,88a.74.74,0,0,1-1,1.09L60.41,68.46,86.52,89.92a.74.74,0,0,1-.84,1.23L56.16,74.71,85.17,92a.74.74,0,0,1-.64,1.34L52.87,81.52,84.15,94.34a.75.75,0,0,1,.43.91.73.73,0,0,1-.87.51l-33.06-7,32.83,8a.75.75,0,0,1,.56.83.72.72,0,0,1-.78.63l-33.72-2,33.64,3a.74.74,0,0,1,0,1.48L49.53,103.8l33.74-2a.71.71,0,0,1,.78.63.75.75,0,0,1-.56.83l-32.83,8,33.06-7a.74.74,0,0,1,.44,1.42L52.9,118.51l31.63-11.87a.74.74,0,0,1,.64,1.34l-29,17.36,29.53-16.47a.74.74,0,0,1,.84,1.23L60.45,131.57,87.17,110.9a.74.74,0,0,1,1,1.09l-22.6,25.14,23.36-24.43a.75.75,0,0,1,1.16.92L71.5,141.84,91,114.19a.74.74,0,0,1,1.29.74L78.07,145.58l15.1-30.2a.74.74,0,0,1,1.38.54L85.1,148.38l10.45-32.15a.74.74,0,0,1,1.45.33l-4.51,33.49L98,116.71A.75.75,0,0,1,98.74,116.09Z"/><polygon class="cls-3" points="24.58 143.64 99.97 28.49 175.78 143.35 24.58 143.64 24.58 143.64"/><path class="cls-2" d="M24.58,144.63a1,1,0,0,1-.83-1.54L99.13,27.95a1,1,0,0,1,.83-.45h0a1,1,0,0,1,.83.45L176.6,142.81a1,1,0,0,1-.83,1.54l-151.2.28ZM100,30.3,26.41,142.64l147.52-.27Z"/><path class="cls-4" d="M99.35,81.09c-.06,0-.06.08-.11.09s-.24,0-.34,0-.07-.11-.14-.13h-.13a.6.6,0,0,1,.05-.69h.11s0-.12.11-.12a5.77,5.77,0,0,1,.6,0c.21,0,.58.36.44.64a.85.85,0,0,1-.13.16s0,0-.06,0-.09.18-.25.16S99.43,81.13,99.35,81.09Z"/><path class="cls-4" d="M99.67,87.15a.9.9,0,0,0,.29.47c.07.22.1.52-.08.64-.45,0-.83,0-1.27,0-.18-.12-.12-.44,0-.63s.07-.06.11-.11.1-.35.23-.39a2.37,2.37,0,0,1,.53,0Z"/><path class="cls-4" d="M98.52,88.72c0,.11,0,.16.05.28s0,.13,0,.16.09,0,.13.08,0,.11.05.17.09.2.13.32c-.12,0-.25-.07-.33,0-.09-.13-.17-.08-.37-.08a1.76,1.76,0,0,0-.2,0c-.1,0-.19.09-.29.11s-.2,0-.32,0-.22,0-.33,0h-.14c-.14,0-.28.12-.39,0a2.51,2.51,0,0,1-.58,0c-.06,0-.07.07-.13.09a5.48,5.48,0,0,0-.82,0c-.06,0-.07.1-.14.11s0-.09-.09-.12-.22.09-.35,0-.05.09-.1.12c-.28,0-.54,0-.79,0-.09,0-.18.06-.27.07s-.1,0-.14,0-.16.08-.27.09-.38,0-.48.07a.25.25,0,0,1-.11,0c-.07,0-.1.09-.15.11a3.56,3.56,0,0,1-.52,0c-.11,0-.21.11-.34.13s-.43,0-.58,0-.08.09-.14.12-.48-.06-.57.11c0,0-.06,0-.1,0-.08.15-.31.05-.48.09s-.13.11-.2.13c-.3-.08-.46.13-.68.15a1.73,1.73,0,0,0-.29,0c-.15,0-.28.2-.47.13s-.06.06-.1.08-.13,0-.19.05a1.81,1.81,0,0,0-.38,0s-.06.08-.1.11-.15,0-.24,0-.21.11-.31.13-.13,0-.19,0-.08.11-.13.13c-.22,0-.44,0-.49.15-.2-.08-.31.1-.4.13s-.25,0-.3.13-.19,0-.29,0-.08.11-.15.13-.34,0-.39.13c-.23,0-.31.21-.63.15,0,0,0,.1-.08.13s-.22.12-.33.15-.25,0-.29.13a.28.28,0,0,0-.33.13c-.22,0-.19.18-.4.15s-.07.1-.13.13c-.24,0-.22.2-.47.15-.05,0-.06.09-.09.13a.26.26,0,0,0-.32.13c-.11,0-.15.1-.23.13s-.2,0-.23.15a.34.34,0,0,1-.14,0c-.08.11-.23.15-.31.27s-.2.06-.27.15h-.14c-.12.17-.36.22-.47.4,0,0-.1,0-.13,0S79,95,79,95a.52.52,0,0,0-.37.29c-.18,0-.25.15-.33.27l-.11,0a1.8,1.8,0,0,1-.47.41.24.24,0,0,0-.08.12c-.21,0-.19.28-.39.31a.78.78,0,0,0-.14.23c-.23.17-.36.44-.59.6-.23.43-.63.68-.79,1.2-.09,0-.1.11-.16.21l-.19.27c0,.07-.24.4-.29.4s-.07-.09-.08-.2a1.42,1.42,0,0,1,0-.28c0-.09.12-.16.18-.25a.93.93,0,0,0,.13-.44c0-.29-.2-.31-.33-.51h-.31c-.25.19-.27.62-.49.84-.18,0-.18-.13-.29-.17-.05-.23.1-.3.16-.43a5,5,0,0,0,.19-.62l.13,0A3.36,3.36,0,0,1,75,96.16a.23.23,0,0,1,.1,0c.14-.26.38-.43.52-.69,0,0,0,0,.09,0,.08-.17.27-.22.36-.39.32,0,.31-.41.63-.44.14-.23.39-.34.56-.55a.54.54,0,0,0,.39-.27c.17,0,.15-.18.33-.16s.06-.1.1-.13h.13a2.3,2.3,0,0,0,.28-.28h.15c.06-.14.25-.14.32-.28h.13s0-.1.08-.13c.23,0,.27-.16.49-.15.15-.17.41-.22.53-.41.07,0,.13,0,.2,0s.07-.08.13-.11.29,0,.34-.16A.44.44,0,0,1,81,92c.05,0,.05-.1.1-.13.27,0,.28-.18.54-.15.05,0,.06-.1.11-.13a.27.27,0,0,0,.32-.13c.19,0,.4,0,.47-.15a.27.27,0,0,0,.3-.13c.17,0,.3,0,.35-.13s.15,0,.25,0,.09-.1.15-.12.13,0,.19,0,.1-.11.16-.13.4,0,.48-.15c.18,0,.38,0,.42-.13a3.31,3.31,0,0,0,.38,0c.06,0,.1-.11.16-.13s.18,0,.28,0,.13-.11.19-.13.23,0,.32,0,.16-.11.25-.13.19,0,.28,0,.06-.09.1-.12c.28,0,.63,0,.79-.16.19,0,.45,0,.52-.11s.05.06.11.05.48,0,.56-.19l.1,0c.06-.09.19,0,.33-.07s.1-.09.14-.09.12.07.18.07.14-.09.23-.11.33.07.46-.05,0,.06.1,0,.09-.09.14-.12c.27,0,.53,0,.79,0,.06,0,.14-.1.2-.12a3.78,3.78,0,0,1,.73,0h.14c.07,0,.19-.11.28-.13a7.83,7.83,0,0,0,.91,0,3.17,3.17,0,0,0,.52,0c.09,0,.15-.1.24-.05.17-.14.46,0,.7-.08s.22-.22.37-.07c.22-.12.64,0,.87-.13a.17.17,0,0,0,.27-.05c.26,0,.43.14.68.09l.13-.05c.08,0,.2,0,.3,0a1.7,1.7,0,0,1,.7,0C98.38,88.59,98.41,88.72,98.52,88.72Zm-21,5.59s0,0,.08,0a.08.08,0,0,0,0-.11C77.55,94.21,77.53,94.24,77.53,94.3Zm-.42.19s0,.1-.09.12a.22.22,0,0,0-.18.13.75.75,0,0,0-.32.28l-.09,0a8.09,8.09,0,0,0-1.37,1.73s0,.12,0,.16a1.09,1.09,0,0,0,.39-.37h.15c.07,0,.06-.16.18-.15a3,3,0,0,1,.19-.27h.27c0,.1.12.13.17.21-.05.32-.34.45-.28.84.09,0,.1-.09.2-.08.09-.17.26-.25.35-.41a.24.24,0,0,0,.1,0l.05-.12c.19,0,.19-.28.39-.31,0,0,0-.1.08-.12s0,0,.09,0,.17-.25,0-.32a1.29,1.29,0,0,1-.49.05c-.06.07,0,.14-.13.15s-.09-.07-.14-.12-.1,0-.11-.08a.21.21,0,0,1,.21-.24,1,1,0,0,1,.33-.59c0-.15.05-.24.18-.25S77.36,94.38,77.11,94.49Z"/><path class="cls-4" d="M101.77,88.87c.05,0,0-.07.1-.07a4,4,0,0,1,1.11.07s.05,0,.1,0,0,.07.1.08a.35.35,0,0,0,.18,0l.09,0c.45,0,.81,0,1.19,0,0,0,.07.08.13.11a4.42,4.42,0,0,1,.79,0,2.36,2.36,0,0,0,.43.11,1.07,1.07,0,0,1,.47.07.45.45,0,0,1-.16.27c.05.2.26.23.28.45a.2.2,0,0,1-.3-.05c-.11.05-.18,0-.29.05s-.07-.08-.13-.09c-.23-.07-.59,0-.82,0-.06,0-.1-.09-.15-.11s-.2,0-.33,0-.08,0-.13,0c-.25,0-.59,0-.87,0s-.49.05-.61-.09c-.06.08-.18,0-.27.08s0-.1-.11-.12-.24.22-.36,0c-.07,0-.09.06-.13.09s-.06-.09-.13-.11-.15,0-.25,0-.25-.09-.34,0c-.08-.05-.2-.15-.29,0a6.52,6.52,0,0,0-1-.05c-.1,0-.19,0-.25,0,.12-.35.36-.57.49-.9.08,0,.1.1.18.12a.87.87,0,0,0,.23,0c.3,0,.7,0,1,0C101.72,88.81,101.73,88.86,101.77,88.87Z"/><path class="cls-4" d="M96.67,90.94c0,.05,0,.09,0,.16a.39.39,0,0,0-.33,0c-.06,0,0-.09-.1-.09s-.07.06-.13.09c-.27.13-.9-.11-1,.13-.06,0-.12,0-.2,0-.25,0-.59-.06-.75.05s-.05,0-.07,0-.09.09-.15,0-.06.08-.11.09c-.27,0-.7-.08-.84.09-.18,0-.41,0-.63.05a1.26,1.26,0,0,0-.18,0c-.08,0-.14.1-.21.12l-.27,0c-.07,0-.12,0-.18,0s-.1.11-.15.15-.34,0-.53,0c0,0-.07.06-.11.08h-.09s-.09,0-.13.05c-.24,0-.48-.07-.54.13-.21,0-.51,0-.58.15s-.41-.06-.49.12c-.12,0-.22.05-.33.07s-.07,0-.1,0-.09.09-.14.11-.13,0-.19,0-.07.06-.11.08h-.08a.77.77,0,0,1-.28.08s-.1,0-.14,0-.06.1-.11.12c-.21,0-.39,0-.47.13-.16,0-.21.06-.27.13s-.44,0-.47.15c-.18,0-.37,0-.39.13-.14,0-.26,0-.3.13l-.28,0c-.06,0,0,.09-.1.12s-.12,0-.18,0-.15.2-.35.13-.06.11-.11.13-.28,0-.32.13c-.15,0-.17.12-.25.15s-.13,0-.19,0-.07.09-.1.13a.75.75,0,0,0-.16,0s0,.09-.08.12a.23.23,0,0,0-.24.15c-.26-.07-.25.16-.44.16,0,0,0,.09-.08.11s-.25,0-.28.15c-.16,0-.16.08-.24.13s-.15.05-.16.15-.18.05-.23.13a.19.19,0,0,0-.2.13c-.25.06-.36.25-.51.41-.12,0-.17.07-.2.16s-.08,0-.1,0l-.06.11a.82.82,0,0,0-.33.28s-.09,0-.11,0a2.32,2.32,0,0,0-.18.27s-.09,0-.11,0,0,.14-.14.13-.12.15-.15.25-.06,0-.09,0c-.43.48-.83,1-1.22,1.52a1.64,1.64,0,0,1-.09.24c-.09,0-.1.1-.16.15s-.06,0-.08,0-.07.14-.13.15-.09-.08-.16-.12-.09,0-.15,0a.76.76,0,0,1-.06-.32c0-.07.07-.08.11-.15s0-.1.05-.15.06-.07.08-.11,0-.17.06-.23a5.68,5.68,0,0,1,.33-.47s0-.07,0-.09.19-.16.22-.27,0,0,.09,0c.15-.33.43-.51.62-.8l.11,0c.05-.11.18-.13.22-.25.23,0,.19-.29.43-.28.05,0,.07-.1.1-.15s.05,0,.1,0,.21-.14.25-.27c.21,0,.22-.26.43-.29,0,0,0-.09.09-.11s.09,0,.11,0,0-.1.08-.12.2-.14.37-.15.23-.12.27-.27c.21,0,.22-.18.43-.16a.18.18,0,0,1,.24-.13c.05,0,0-.1.09-.12.2,0,.2-.21.44-.16,0,0,0-.1.09-.13H83s.05-.11.1-.13c.25,0,.27-.18.52-.15.06,0,.06-.11.11-.13.27,0,.26-.21.56-.15.05,0,0-.11.1-.13s.27,0,.32-.13.13,0,.19,0S84.93,93,85,93s.12,0,.19,0,.12-.11.19-.13.15,0,.2,0,.08-.1.15-.13.19,0,.27,0,.35-.15.52-.16.19-.08.3-.11.11-.08.16-.11.14,0,.2,0,.08-.05.1-.05.21,0,.27-.08a.87.87,0,0,0,.36-.05C88,92.06,88,92,88,92s.12,0,.18,0,.13-.11.21-.13.35.06.42-.08,0,.06.09.07.09-.1.15-.13a1.77,1.77,0,0,0,.33,0c.05,0,.08-.08.13-.11s.25,0,.44,0,.05-.05.08-.08l.1.05c.07,0,0-.07.1-.09s.34,0,.46,0,.05-.09.11-.12a1.75,1.75,0,0,0,.73-.08.16.16,0,0,0,.28-.07c.31,0,.68,0,.84-.13.31-.06.75.08.91-.11a.31.31,0,0,1,.13.08c.07,0,.07-.09.13-.12.23,0,.61,0,.87,0h.14c.05,0,.09-.1.14-.11s.16,0,.23,0,.06,0,.1-.05h1.15c.1,0,.28,0,.31,0S96.68,90.87,96.67,90.94Z"/><path class="cls-4" d="M114.25,90.8c0,.08-.18.11-.21,0S114.22,90.75,114.25,90.8Z"/><path class="cls-4" d="M114.74,90.9s.05.1.1.12H115s0,.07,0,.11.05-.06.09-.08.07.07.11.09.28,0,.39,0,.11.19.28.12.05.12.11.15a2.73,2.73,0,0,1,.29,0s.06.11.11.13.33,0,.39.13c.14-.05.21.12.3.15s.28,0,.34.13c.25,0,.27.13.44.16a.24.24,0,0,0,.08.12c.25,0,.25.18.48.15,0,0,0,.09.08.13a.29.29,0,0,1,.13,0s0,.09.08.12a.29.29,0,0,1,.34.15h.19a.62.62,0,0,1,.06.13c.12,0,.14.08.2.13a.41.41,0,0,1,.2,0c.06.11.23.13.28.25s.08,0,.14,0,0,.11.09.13h.15c0,.13.23.12.25.27.05,0,.08,0,.14,0s.06.08.09.12.12.16.27.16a.57.57,0,0,0,.09.13c.07,0,.09,0,.15,0a.22.22,0,0,0,.2.13c.06.1.19.14.23.27a.23.23,0,0,1,.1,0c0,.15.22.12.24.27s.09,0,.1,0a.67.67,0,0,0,.38.28c.06.16.21.23.28.39,0,0,0,0,.1,0,.13.2.3.34.43.53a.24.24,0,0,0,.1,0,1.27,1.27,0,0,1,.29.53.76.76,0,0,0,.18,0c0,.08,0,.14,0,.2s.25.24.28.4,0,.12,0,.17.32.32.23.58a1,1,0,0,0-.56.27s-.06,0-.1,0-.05.1-.09.13c-.27.07-.35.35-.51.54a.33.33,0,0,0-.25-.13,5.25,5.25,0,0,1-.34-.65s-.07,0-.09-.05c-.15-.36-.45-.56-.61-.92,0,0-.07,0-.1,0-.21-.36-.56-.58-.77-.93-.1,0-.11-.15-.23-.16a1.23,1.23,0,0,1-.06-.13c-.18,0-.14-.18-.32-.16a.21.21,0,0,0-.18-.15c0-.12-.17-.13-.2-.25s-.07,0-.09,0-.19-.13-.23-.25-.1,0-.14,0-.2-.14-.24-.27h-.13c-.11-.19-.35-.24-.48-.41a.72.72,0,0,1-.15,0c-.06-.14-.24-.14-.3-.27h-.13a.83.83,0,0,1-.09-.13c-.06,0-.09,0-.15,0s-.24-.13-.29-.27h-.16c-.1-.11-.28-.14-.35-.28a.27.27,0,0,1-.32-.13.24.24,0,0,1-.28-.13c-.23,0-.27-.2-.49-.16a.2.2,0,0,0-.25-.13s-.07-.1-.11-.13c-.21.06-.26-.09-.39-.13s-.12,0-.16,0-.16-.2-.38-.13a.45.45,0,0,1-.1-.13c-.1,0-.18,0-.25,0s-.18-.14-.35-.12c-.06-.14-.26-.12-.33-.25-.14.06-.22-.06-.42,0a.42.42,0,0,0-.41-.15s-.05-.1-.1-.12a2.2,2.2,0,0,1-.27,0c-.05-.16-.31-.12-.49-.15,0-.06,0-.14,0-.2.15.16.62,0,.71.21h.16s.06.07.09.09.06-.07.11-.08.06.09.1.12.21,0,.34,0c.08.26.57,0,.65.27.2,0,.44,0,.52.09s.12-.09.23-.08a1.26,1.26,0,0,0,.24.25c.08,0,.06-.09.1-.12s.27,0,.39,0,.12-.15.22-.19.45.13.43,0-.21-.08-.23-.19-.09,0-.15,0c-.05-.15-.27-.12-.33-.27-.27.08-.3-.2-.58-.15a.19.19,0,0,1,0-.13,1.47,1.47,0,0,1-.29,0s0-.14-.1-.17-.2.1-.27,0S114.62,91,114.74,90.9Z"/><path class="cls-4" d="M99,91.19c.07,0,0,.1.05.17a1.07,1.07,0,0,1,0,.69c.08.12,0,.37.08.56a1.56,1.56,0,0,0,.39.77.23.23,0,0,0,.09-.05.37.37,0,0,1,0-.29c0-.06,0-.09-.05-.15.08-.24-.1-.62,0-.84.15.09.27-.08.42,0s.07.08.17.11.06-.06.1-.08.13.07.19,0,.07.08.14.08c.29,0,.7,0,1.09,0a.51.51,0,0,1,.08.11c.08,0,.07-.14.21-.11s.17.18.24.05c.09.08.29.13.34,0,.25.19.82,0,1.19.11l.11.11.72.05c.07,0,0,.08.13.11s.23,0,.32,0,.06.09.13.11.07-.08.11-.11.12.05.19,0,.21,0,.27.12a2.56,2.56,0,0,1,.41,0s.05.11.11.13.59,0,.71.13a.35.35,0,0,1,.39.13c.08,0,.06-.11.14-.12a.59.59,0,0,0,.49.13c.07.16.31.14.53.15.05,0,.06.1.11.13a.82.82,0,0,1,.58.23c.05,0,.05,0,.1,0s.28.27.61.21c0,0,.06.1.11.13a.28.28,0,0,1,.32.13.72.72,0,0,1,.33,0,.8.8,0,0,1,.06.12.86.86,0,0,0,.2,0c0,.1.12.14.23.16s0,.11.09.12h.15c.05,0,.06.1.1.13h.22c.06,0,.07.12.13.15h.14c.06.1.19.12.3.16s.17.14.2.25a.49.49,0,0,1,.15,0s0,.07.06.12a.75.75,0,0,1,.38.28.82.82,0,0,1,.23,0,2,2,0,0,1,.2.28c.21,0,.29.23.51.28a1.22,1.22,0,0,1,.27.51c.28.1.34.44.47.71,0,0,.1,0,.13.07a.69.69,0,0,1,0,.19s-.11,0-.13.11a.53.53,0,0,1-.08.35c-.2,0-.21.15-.38.16s-.07.13-.17.13,0,.1-.07.13-.08,0-.1,0,0,.1-.08.13-.23,0-.27.13h-.15c-.07,0-.1.15-.23.15s0,.11-.09.13-.1,0-.15,0,0,.1-.08.13c-.25,0-.66,0-.89,0-.07,0-.07-.09-.11-.13s-.17-.07-.18-.16-.15-.07-.19-.13a.65.65,0,0,0-.13,0c-.07-.18-.26-.22-.33-.39s-.1,0-.14,0a.76.76,0,0,1-.05-.12s-.1,0-.13,0-.25-.33-.45-.41c0,0,0-.06,0-.11s-.16-.09-.22-.16H110a1.49,1.49,0,0,1-.08-.13c-.12,0-.17,0-.22-.13a.45.45,0,0,0-.16,0c-.05-.19-.31-.08-.37-.27H109s0-.11-.1-.13c-.25.06-.22-.17-.43-.15,0,0,0-.11-.1-.13s-.22-.06-.29-.13h-.21c-.06,0-.06-.1-.11-.13-.3,0-.34-.21-.67-.15,0,0-.05-.08-.09-.12s-.24,0-.34,0-.14-.13-.23-.15-.16,0-.24,0-.15-.1-.21-.13a.26.26,0,0,1-.28-.11c-.07,0-.06.06-.13.05a.53.53,0,0,0-.39-.09c-.11-.22-.59-.05-.76-.21s-.08,0-.13,0c0-.16-.33-.06-.44-.15a.5.5,0,0,1-.25,0s0-.1-.1-.12c-.29-.06-.56,0-.8,0s-.26-.21-.42-.09a2.48,2.48,0,0,0-.67,0c-.19,0-.34,0-.39-.13a.52.52,0,0,0-.27.05c-.28-.13-.71,0-1.06-.07-.16-.25,0-.71-.18-1-.13,0-.12.16-.18.24a.32.32,0,0,0-.16.16c-.1,0-.08,0-.18,0-.25-.11-.09-.64-.33-.76a.27.27,0,0,1-.09.27c.07.1,0,.18,0,.31s0,.3,0,.4a1,1,0,0,0-.1.33,3.87,3.87,0,0,0-.89.08c-.09-.12-.22,0-.28.05a8.17,8.17,0,0,0-1.27.07.6.6,0,0,0-.23,0s-.09.09-.14.11c-.2.06-.5,0-.77,0-.11,0-.2.1-.29.12-.25.05-.51-.07-.6.13-.18,0-.34,0-.51,0s-.1.08-.16.11-.32,0-.46,0-.26.2-.42.12a.24.24,0,0,0-.1.08c-.11-.05-.14,0-.23.07s-.22,0-.28,0-.06.1-.11.12-.3,0-.36.12-.24,0-.35,0-.12.11-.19.13-.25,0-.28.13a1.59,1.59,0,0,1-.32,0c-.05,0,0,.1-.09.12s-.17.11-.27.15-.11,0-.15,0-.07.1-.13.13h-.14s-.05.09-.08.13c-.22,0-.25.12-.43.15s-.06.1-.1.13a.35.35,0,0,0-.14,0s0,.1-.09.12-.17.05-.24.13a.53.53,0,0,0-.44.28c-.23,0-.22.27-.44.29s-.29.24-.39.4c-.05,0-.08,0-.14,0-.09.16-.25.24-.33.4s-.2.18-.29.28l-.11,0c-.07.08-.12.18-.19.27a2.07,2.07,0,0,0-.21,0s0,.1-.08.12a.34.34,0,0,1-.37-.09s-.06.06-.1.08-.14-.18-.23-.25a.33.33,0,0,1-.36-.12c-.18,0-.32,0-.38-.13a.5.5,0,0,1-.15,0c-.06,0-.05-.1-.1-.13h-.14c-.07,0-.06-.16-.19-.13a2,2,0,0,1-.19-.27,1,1,0,0,1-.4-.41c-.07,0-.08-.08-.13-.13s-.17-.12-.18-.23.16-.5.29-.51a.65.65,0,0,0,.14-.36s.1,0,.14,0,.21-.14.26-.27.07,0,.11,0,.17-.16.23-.27.05,0,.1,0a7.74,7.74,0,0,1,.67-.68l.1,0c.14-.15.35-.22.48-.37s.09,0,.13,0,.06-.08.09-.12.11,0,.15,0,.06-.09.1-.12.22,0,.23-.13l.19,0c.06-.05.07-.16.21-.13s.06-.11.11-.13H87s0-.1.08-.13h.13c.06-.17.39-.06.42-.27.18,0,.23-.07.3-.15s.39,0,.42-.13c.18.06.27-.1.37-.13s.18,0,.28,0,.15-.19.33-.15.06-.08.09-.12a.9.9,0,0,0,.58-.15.45.45,0,0,0,.37-.13h.27c.05,0,0-.12.1-.15s.52.06.57-.13c.25,0,.46-.06.63,0s.05-.1.11-.12a.94.94,0,0,0,.38,0c.05,0,.08-.08.14-.11.31-.14.74.06,1.06,0,.06,0,.11-.12.18-.13.25-.07.59,0,.76-.13a6.21,6.21,0,0,0,1.1-.07c.06,0,.08,0,.13,0s.06-.08.1-.11c.43,0,1.1,0,1.63,0,.11,0,.16-.11.24-.13a1.24,1.24,0,0,1,.52,0s.09.05.13.05.17-.08.28-.09.15,0,.19,0,.09-.6.15-.8Z"/><path class="cls-4" d="M109.33,91.84c.21,0,.56,0,.64.15.15,0,.36,0,.42.07s.06,0,.1,0c.08.13.26,0,.39.09s.19.17.39.12c.16.18.54.13.7.28.2,0,.37,0,.44.13a.89.89,0,0,1,.23,0c0,.2.37.06.39.25.14,0,.34,0,.35.13s.39,0,.44.16c.07,0,.11,0,.19,0,.06.14.23.08.34.13s.07.09.13.13.21.06.28.13a1.1,1.1,0,0,1,.25,0,.34.34,0,0,0,.1.13h.15c.14.2.46.23.62.41.16,0,.19.06.25.13a.76.76,0,0,1,.15,0,.32.32,0,0,0,.08.13h.14c.06.14.28.11.33.27a.53.53,0,0,1,.15,0,.5.5,0,0,0,.08.13.46.46,0,0,1,.14,0l.08.12c.19,0,.17.18.38.15s.17.27.37.29a.25.25,0,0,1,.05.11c.17,0,.15.18.33.16,0,0,0,.08.06.12s.11.18.27.16,0,.08.06.12.07,0,.13,0c.11.22.32.33.44.53.16,0,.17.17.32.19s.18.23.24.37l.11,0c.08.11.12.24.2.36s.05,0,.08.05,0,.05,0,.08.07,0,.09.07,0,.07,0,.09a.47.47,0,0,1,.15.36c.16.23.45.6.16.89a1.1,1.1,0,0,1-.28,0c-.08,0-.09-.16-.2-.17-.2-.47-.61-.71-.81-1.17a.32.32,0,0,1-.15-.17c-.24,0-.21-.38-.46-.43-.14-.28-.42-.41-.57-.68a.51.51,0,0,1-.35-.28c-.16,0-.14-.17-.29-.16a.87.87,0,0,0-.06-.12c-.06,0-.07,0-.13,0-.14-.22-.38-.34-.55-.53-.17,0-.19-.17-.37-.17s-.08-.15-.2-.13-.13-.15-.27-.12,0-.11-.09-.15-.16-.08-.23-.13h-.16a.33.33,0,0,1-.08-.12,1,1,0,0,0-.24,0l-.06-.13c-.19,0-.17-.2-.41-.15-.05-.07-.1-.15-.23-.15s-.05-.11-.11-.13c-.25.08-.25-.19-.52-.13,0-.17-.22-.1-.33-.15s-.08-.1-.13-.12-.12,0-.16,0-.07-.1-.13-.12-.13,0-.19,0-.06-.07-.11-.11l-.32,0a.62.62,0,0,0-.09-.12c-.11,0-.21,0-.31-.05s-.08-.09-.14-.11-.07,0-.1,0-.16-.12-.27-.15-.18,0-.3,0-.07-.1-.13-.13c-.31,0-.39-.15-.66-.15-.13-.18-.41-.09-.63-.17,0,0-.08-.08-.14-.09s-.16,0-.23,0-.17-.11-.27-.13-.19,0-.27,0-.09-.11-.16-.13-.21,0-.32,0-.15-.07-.23,0-.05-.09-.1-.11-.17-.05-.23-.11-.09.12-.14.09,0-.4.1-.49h0c.07,0,.07.06.13.08a2.84,2.84,0,0,0,.44,0c.08,0,.12.07.18,0a.41.41,0,0,0,.08.09C109.1,91.71,109.26,91.68,109.33,91.84Z"/><path class="cls-5" d="M77.61,94.22a.08.08,0,0,1,0,.11s-.05,0-.08,0S77.55,94.21,77.61,94.22Z"/><path class="cls-5" d="M77.3,94.74c-.12,0-.18.1-.18.25a1,1,0,0,0-.33.59.21.21,0,0,0-.21.24s0,0,.11.08,0,.13.14.12.07-.08.13-.15a1.29,1.29,0,0,0,.49-.05c.14.07,0,.24,0,.32s0,0-.09,0-.05.08-.08.12c-.2,0-.2.27-.39.31l-.05.12a.24.24,0,0,1-.1,0c-.09.17-.27.24-.35.41-.11,0-.11.08-.2.08-.06-.39.23-.52.28-.84,0-.08-.14-.11-.17-.21H76a3,3,0,0,0-.19.27c-.12,0-.11.1-.18.15h-.15a1.09,1.09,0,0,1-.39.37s0-.12,0-.16A8.09,8.09,0,0,1,76.44,95l.09,0a.75.75,0,0,1,.32-.28.22.22,0,0,1,.18-.13s.05-.09.09-.12C77.36,94.38,77.43,94.58,77.3,94.74Z"/><path class="cls-4" d="M99.8,95.74c0,.1,0,.24.05.33-.09.19,0,.41,0,.59s.35,0,.55.05.14.07.21,0a.3.3,0,0,0,.11.07c.07,0,.08,0,.14-.05s.45.07.71.08c0,0,.06.11.11.13s.09,0,.14,0,.37,0,.52.05.12.12.19.13.14,0,.2,0,.06.1.11.12.26,0,.39,0,.06.11.11.13.25,0,.33,0a.28.28,0,0,0,.08.11H104a.34.34,0,0,1,.09.13.75.75,0,0,0,.16,0c.06.05.08.16.21.13a.42.42,0,0,1,.06.13c.16,0,.15.1.23.15h.14c0,.09.1.1.16.16s0,.06,0,.08a.88.88,0,0,1,.13.13c.09.13.27.26.24.52a2.25,2.25,0,0,0-.09.33s-.06,0-.11,0a.28.28,0,0,0-.09.13.22.22,0,0,1-.1,0c-.05.13-.21.13-.25.27s-.09,0-.14,0-.07.1-.13.13-.14.06-.23.12-.16.05-.18.15a.23.23,0,0,0-.19.15c-.05,0-.06,0-.11,0s0,.1-.08.13-.17.06-.21.13-.11,0-.14,0-.27.11-.32.27c-.21,0-.42,0-.52.08a.39.39,0,0,0-.32-.08.62.62,0,0,1-.06-.13c-.21,0-.16-.19-.37-.15,0,0,0-.11-.09-.13s-.13,0-.19,0-.08-.11-.15-.13-.16,0-.27,0-.18-.15-.24-.05.07.06.11.11.05.14.18.13.05.09.09.12h.14c.12.15.34.21.3.52-.15.12-.49,0-.65.07,0,.11.08.27.24.27,0,.05,0,.06.05.11a.27.27,0,0,1,.2.09c.13-.06.18.09.33.08.12.4-.27.48-.42.68-.16,0-.19.07-.25.13s-.31,0-.3.23.16,0,.25.05,0,.12,0,.23-.28,0-.43.05-.07.08-.13.11a1.37,1.37,0,0,1-.18,0l-.13,0c-.1,0-.15,0-.19.11s-.21-.1-.34-.09-.1,0-.15,0-.09,0-.14-.05-.19.08-.29.05-.08-.08-.13-.08-.13.13-.2.13-.1-.11-.16-.12-.28,0-.34.09c-.11-.15-.46,0-.53-.24-.19,0-.48.05-.6-.05a.39.39,0,0,1,.09-.23.74.74,0,0,0,.32-.05c-.06-.05-.08-.16-.13-.23h-.19s-.05-.09-.09-.13c-.2.06-.22-.13-.39-.15a.76.76,0,0,1-.05-.12.32.32,0,0,1-.23-.4c.16-.05.26-.18.47-.19,0,0,.05-.1.1-.12a.41.41,0,0,0,.15,0c0-.1.17-.12.16-.27s.1,0,.1-.08-.15,0-.14.07a2.54,2.54,0,0,1-.57,0,.5.5,0,0,1,.05-.37.21.21,0,0,1,.1,0c.06-.12.21-.14.27-.27a.3.3,0,0,0,.24-.13c.09,0,.19,0,.24-.05s-.29,0-.38-.07a.43.43,0,0,1-.33.12s0,.11-.1.13-.2,0-.24.13a.19.19,0,0,0-.24.13.41.41,0,0,1-.13,0s0,.1-.08.12-.11,0-.16,0,0,.1-.09.13c-.29.09-.32-.2-.63-.13-.07-.07-.12-.16-.27-.15s-.12-.14-.14-.25-.21-.19-.32-.29h-.14a1.34,1.34,0,0,0-.21-.28c-.14,0-.16-.07-.23-.12s-.25,0-.41,0a.18.18,0,0,0-.23-.13.55.55,0,0,1-.05-.12l-.11,0c0-.07-.06-.14-.15-.15S93,99.19,93,99.1a.66.66,0,0,1,.13-.59l.11,0c.09-.16.27-.22.36-.39.11,0,.16-.07.19-.15s.08,0,.14,0c0-.15.26-.13.3-.28a.19.19,0,0,0,.27-.13c.16,0,.31,0,.33-.13.29,0,.37-.2.7-.15.05,0,.08-.1.14-.12s.17,0,.24,0S96,97,96,97h.06a1.93,1.93,0,0,1,.25-.07,2.3,2.3,0,0,0,.41,0c.07,0,.11-.09.19-.12.25-.08.62.08.73-.12a3.66,3.66,0,0,0,.55,0c.1,0,.2,0,.28,0s.13-.16.15-.23,0-.47.06-.62.17.07.22.15a.26.26,0,0,1,.25.11c.07,0,.09-.08.16-.09s.11,0,.15,0,0-.05.09-.11.13-.07.14-.17Zm-5.89,3.7a.37.37,0,0,0,.13.11,1.21,1.21,0,0,0,.11-.11.35.35,0,0,0-.05-.23C93.95,99.15,93.91,99.3,93.91,99.44Z"/><path class="cls-5" d="M94.1,99.21a.35.35,0,0,1,.05.23,1.21,1.21,0,0,1-.11.11.37.37,0,0,1-.13-.11C93.91,99.3,93.95,99.15,94.1,99.21Z"/><path class="cls-4" d="M108.33,101.14s.07.1.11.13.28,0,.3.13c.18,0,.36,0,.41.15h.18c.05,0,.06.12.11.15a.26.26,0,0,1,.32.13H110c.06.18.29.12.48.15s.2.15.39.13.12.14.25.13a1.07,1.07,0,0,1,.09.36,1.28,1.28,0,0,1-.05.15c0,.08,0,.18,0,.25s-.05.06-.08.11a3.52,3.52,0,0,1-.15.36s-.05,0-.08,0,0,.09-.05.11a2.66,2.66,0,0,1-.21.2c0,.09-.09.13-.11.21s0,0-.09,0c-.07.18-.25.22-.32.4a.19.19,0,0,0-.11,0,.58.58,0,0,0-.06.12s-.07,0-.1,0-.23.12-.27.27c-.14,0-.16.08-.22.13s-.1,0-.15,0-.06.09-.11.12-.19,0-.2.13-.18.09-.24.16-.21.06-.27.13h-.18a.32.32,0,0,0-.08.12c-.06,0-.17,0-.23,0s-.07.11-.11.13-.15,0-.24,0-.08.1-.13.13-.32,0-.37.15a.3.3,0,0,0-.33.13c-.16,0-.27.12-.42.15s-.17,0-.24,0-.09.11-.14.13-.37,0-.43.13-.26,0-.39,0-.09.09-.14.11-.38,0-.56.05-.07.08-.11.09-.33,0-.51,0-.08.08-.14.11c-.25.11-.63,0-.86.12a.26.26,0,0,0-.28.05,3.11,3.11,0,0,0-.9.07l-.11,0a1.65,1.65,0,0,1-.79.11c-.55,0-1.3,0-1.85,0a6.86,6.86,0,0,1-1,0,.13.13,0,0,1-.1-.05c-.11.08-.33,0-.46,0s-.07-.1-.13-.12-.16.11-.24.11-.08-.1-.14-.12c-.21-.07-.51.08-.7,0s-.06,0-.11,0-.08,0-.15-.05-.07-.06-.09-.07-.37,0-.54,0-.12-.11-.2-.13-.48.07-.65-.08h-.09c-.06,0-.07-.06-.13-.07h-.34s-.06-.09-.1-.12-.31,0-.44,0-.09-.11-.16-.13-.19,0-.32,0-.06-.09-.1-.12-.17,0-.25,0-.09,0-.14,0-.07-.11-.14-.13-.16,0-.28,0l-.06-.13c-.3,0-.36-.19-.65-.15,0,0,0-.11-.09-.13s-.23-.1-.32-.13-.11,0-.16,0-.08-.08-.13-.12c-.22,0-.25-.15-.43-.16s-.05-.09-.09-.12a.9.9,0,0,0-.16,0c0-.16-.28-.11-.33-.27H89.2a.38.38,0,0,1-.1-.13c-.17,0-.15-.17-.32-.16s-.17-.11-.19-.24c-.24,0-.26-.28-.48-.32-.06-.15-.2-.2-.24-.37-.15,0-.14-.14-.2-.25a.91.91,0,0,0-.23-.24,1.17,1.17,0,0,1-.1-.86,1,1,0,0,0,.15-.19.45.45,0,0,1,.14,0c0-.22.36-.09.43-.27.17,0,.5.05.53-.15.08,0,.15,0,.21,0s.08-.11.14-.13.11,0,.14,0,.06-.11.11-.13.23-.11.33-.13.11,0,.16,0,.15-.19.28-.15.05-.1.09-.13.33,0,.41-.05c.08.08.18,0,.28,0s.12,0,.19,0a1.58,1.58,0,0,1,.37,0s0,.09.08.11.11,0,.13,0,.09.15.2.15c0,.15.21.12.24.25.17,0,.17.1.28.15s.17,0,.2.13.1,0,.16,0a.21.21,0,0,0,.22.15c.05.06.09.14.2.13a.26.26,0,0,0,.29.13c.07,0,.06.1.1.13s.1,0,.13,0c.1.18.4.06.47.27h.24c.05,0,.05.11.1.13s.16,0,.25,0,.11.14.2.15.39,0,.47.13.31,0,.37.11c.08-.06.14,0,.21,0s.45-.07.49.13c.26,0,.56,0,.78,0s.15.07.21,0,.08,0,.11.07a6.86,6.86,0,0,0,.81,0,1,1,0,0,1,.25,0c.05,0,.08.11.15.13s.16,0,.27,0a.14.14,0,0,1,.27,0,.28.28,0,0,1,.37,0,.22.22,0,0,1,.23,0c.07,0,.07-.09.13-.12.24,0,.56,0,.86,0a1.87,1.87,0,0,0,.44,0,.29.29,0,0,0,.11-.08.41.41,0,0,1,.1.07c.07,0,.08-.07.14-.09.25,0,.52,0,.63-.12.29,0,.56,0,.71-.16.12,0,.2,0,.28,0s.09-.09.15-.12.19,0,.33,0a.39.39,0,0,1,.37-.13c.07,0,.07-.11.13-.13h.32s0-.11.1-.13.22-.1.3-.13.1,0,.14,0,.12-.18.3-.15,0-.09.08-.12.08,0,.14,0,0-.1.08-.13.15-.1.24-.13.11,0,.16,0,.19-.21.27-.27a.21.21,0,0,0,.25-.13c.06,0,.1,0,.15,0s.05-.11.1-.15.09,0,.13,0,.1-.14.19-.11.06-.11.11-.13.22-.06.28-.13c.24,0,.46,0,.54.13Z"/><path class="cls-4" d="M95,101.68l.21,0c0,.12.14.12.27.13s.15.27.35.27.1.17.27.15.1.12.14.19-.05.34-.16.35-.08-.11-.14-.13-.18.06-.3,0-.18-.14-.32-.16,0-.18-.14-.19a.66.66,0,0,1,.14-.27c0-.1-.16-.11-.19-.21a1.83,1.83,0,0,0-.49,0c0,.08.05.19,0,.25s-.14-.15-.28-.16-.18-.19-.2-.32.14-.22.39-.21a.44.44,0,0,0,.39.15A1.06,1.06,0,0,1,95,101.68Z"/><path class="cls-4" d="M104.19,101.42a1.39,1.39,0,0,1,.09.21c-.06.12-.13.21-.19.33s-.16.08-.22.15a.16.16,0,0,1-.11,0,.61.61,0,0,1,0-.19c-.06-.13-.37-.05-.51-.05s-.12.1-.15.19.08.08.1.15-.16.21-.21.35c-.13,0-.15.05-.19.12s-.36,0-.42.09,0,0-.08,0,0,.12-.15.09,0-.24-.06-.35.17-.08.19-.19.17-.08.24-.13.2,0,.25-.15.13-.1.2-.15h.2c.05,0,0-.09.05-.13s.24,0,.27-.15a.28.28,0,0,0,.19-.07c.05,0,.06,0,.11,0A.47.47,0,0,1,104.19,101.42Z"/><path class="cls-4" d="M92,106.82c.41,0,.58.22,1,.13.06,0,.07.1.11.15a2,2,0,0,1,.48,0c.08,0,.11.1.17.12s.08,0,.13,0c.26,0,.6,0,.71.13.09,0,.18,0,.29,0s.37,0,.55,0,.23.09.33.05c.1.17.55,0,.82.09.07,0,.11.08.15.08s.1-.08.16-.09a.4.4,0,0,1,.24,0s.08.09.15.11a4.25,4.25,0,0,0,.56,0l1.27,0c.52,0,1,0,1.48,0h.29c.17,0,.28.08.34-.09.12.11.31-.08.43,0,.23-.16.79,0,1-.12.13.08.23-.06.33-.08s.34,0,.51,0,.19-.06.29,0a1,1,0,0,0,.19-.12,5.41,5.41,0,0,0,.56,0c.11,0,.2-.1.3-.12s.24,0,.35,0,.13-.11.19-.13.23,0,.38,0,.24-.12.37-.15.2,0,.29,0,.11-.11.18-.13.22,0,.32,0,.07-.08.13-.12.32,0,.47,0,.17-.11.27-.13.46.08.53-.11c.07,0,.14,0,.23,0s.15,0,.23,0,.13-.12.2-.12.13.11.2.19-.23.18-.28.35c-.13,0-.15.08-.2.15h-.13c-.07.13-.29.12-.34.27H108s0,.09-.08.13a.41.41,0,0,0-.42.15.36.36,0,0,0-.37.13c-.19,0-.37,0-.42.13-.2,0-.42,0-.48.13a3,3,0,0,0-.45,0c-.08,0-.14.09-.2.11s-.33,0-.48,0,0,0-.08.05-.11,0-.16.05-.35,0-.53,0-.1.07-.15.09a2.37,2.37,0,0,1-.63,0c-.12,0-.22,0-.29.11s0,0-.09,0c-.22.14-.71,0-.94.12-.11-.11-.23,0-.3.07s-.09,0-.15,0c-.24.16-1,0-1.32.05-.07,0-.1.09-.14.13a.65.65,0,0,0-.3.05c-.59-.1-1.38,0-1.94-.05-.07,0-.05-.11-.11-.13-.41,0-.87,0-1.18,0-.06,0-.07-.08-.14-.09s-.07,0-.13.05-.08,0-.13,0-.15,0-.23,0-.49.07-.63-.07-.08,0-.14.05-.08-.1-.16-.12c-.24-.07-.65.05-.82-.07s-.05.05-.11,0-.08-.1-.16-.12-.23,0-.35,0-.07-.07-.11-.09a1.31,1.31,0,0,0-.39,0c-.25,0-.42,0-.51-.15-.18,0-.29,0-.44,0s0-.09-.1-.12-.26,0-.36,0-.06-.1-.13-.13-.16,0-.23,0-.09-.09-.15-.12-.17,0-.32,0-.05-.1-.09-.13a1.64,1.64,0,0,0-.33,0s-.05-.11-.1-.13h-.18c-.05,0,0-.11-.1-.13s-.14,0-.2,0-.09-.19-.25-.13a.37.37,0,0,1-.05-.12s-.09,0-.11,0-.07-.08-.1-.12-.17-.14-.28-.2c0-.12.08-.23.2-.23s.12.1.2.05c.14.13.35.05.53.11s.09.09.15.11.28,0,.44,0,.08.1.14.13c.24,0,.51,0,.61.13s.19,0,.23.07C91.86,106.63,92,106.72,92,106.82Z"/><path class="cls-5" d="M115.55,108.79c0,.13-.11.11-.15.19s-.25.13-.36,0,.13-.08.23-.08A.18.18,0,0,1,115.55,108.79Z"/><path class="cls-5" d="M114.84,109.08a.1.1,0,0,1,.08,0s0,0-.08,0Z"/><path class="cls-5" d="M84.14,109.28s-.17,0-.19,0S84.16,109.14,84.14,109.28Z"/><path class="cls-5" d="M114.64,109.19c.07.13-.16.15-.23.09S114.55,109.2,114.64,109.19Z"/><path class="cls-5" d="M114.31,109.37a.12.12,0,0,1-.23,0C114.11,109.29,114.27,109.29,114.31,109.37Z"/><path class="cls-5" d="M84.43,109.41c-.05,0-.18,0-.18-.05S84.45,109.31,84.43,109.41Z"/><path class="cls-5" d="M84.83,109.52c0,.08-.22.11-.27,0S84.78,109.47,84.83,109.52Z"/><path class="cls-5" d="M114,109.48a.24.24,0,0,1,0,.09s-.12,0-.14,0A.09.09,0,0,1,114,109.48Z"/><path class="cls-5" d="M86.27,110.1a.11.11,0,0,1-.13,0C86.14,110,86.29,110,86.27,110.1Z"/><path class="cls-4" d="M83.1,110.46v.07a.1.1,0,0,1-.14,0C82.94,110.42,83.07,110.42,83.1,110.46Z"/><path class="cls-4" d="M114.65,110.9c0,.11-.27.1-.32,0S114.6,110.76,114.65,110.9Z"/><path class="cls-5" d="M85.09,111a.08.08,0,0,1,.06,0S85.07,111.09,85.09,111Z"/><path class="cls-4" d="M85.28,111.26s.05,0,0,.08S85.27,111.3,85.28,111.26Z"/><path class="cls-4" d="M67.42,118.39a.22.22,0,0,0,0,.13c-.08.1-.2,0-.32.08s-.13.1-.2.12-.29,0-.38.09c.15.12.39.09.6.12a3.14,3.14,0,0,1,.58.13c0,.1-.13.06-.2.09s-.08.09-.14.12-.08,0-.1,0-.09.09-.14.12-.09,0-.13,0-.09.09-.15.12-.18,0-.23.13a9.89,9.89,0,0,0-.9.45s-.08.08-.13.11-.13,0-.19.08-.13,0-.19.08-.06.07-.1.09-.2.05-.25.15a2.44,2.44,0,0,0-.41.19s-.07.07-.11.09l-.15.05s-.07.07-.11.09-.08,0-.11,0-.08.08-.13.11-.27.11-.39.17-.25.17-.38.24l-.14.05s-.07.07-.11.09-.08,0-.11,0-.09.08-.14.11a1.6,1.6,0,0,0-.49.28c-.18,0-.23.16-.41.17a.73.73,0,0,0-.11.11c-.11,0-.17.09-.25.13l-.13,0s-.08.08-.13.11-.08,0-.12,0-.1.08-.15.11l-.13,0s-.09.08-.14.11-.18,0-.23.13c-.35.14-.65.34-1,.51,0,.17.24.12.36.12h5.08c.77,0,1.56,0,2.24,0,0,.1-.1,0-.14.12s0,.22,0,.31c-.4.13-1,0-1.43.15.24.12.55,0,.81.09.08,0,.15.09.23.11.33.07.72-.07,1,.07-.05.1-.23.11-.34.12s-.24,0-.37,0c-.93,0-1.89,0-2.86.07-2.52.11-5.11-.06-7.52.07-.21,0-.5.12-.63-.07s.09-.08.08-.19c-.48-.17-1.21.06-1.67,0,0-.13.07-.17.09-.27s-.39-.07-.62-.07-.48,0-.6-.08c2.67-1.55,5.3-3.14,8-4.7,0-.08.07-.09.09-.15a4.22,4.22,0,0,0-.7,0c-1.05,0-2.17,0-3.28,0-.54,0-1.1,0-1.63,0H54.19c-.11,0-.26,0-.36-.05.08-.1.23-.05.36-.09s.15-.09.21-.11c.25-.06.55.06.75-.08a5.86,5.86,0,0,0-1.09-.27c.08-.14.4,0,.49-.15s-.15-.07-.15-.17.37-.08.57-.09c.85,0,1.73,0,2.63,0,2.18-.07,4.41,0,6.64,0h2.32A1.87,1.87,0,0,1,67.42,118.39Z"/><path class="cls-4" d="M135.84,121.49c.2.11.32-.06.46-.11l.15,0c.06,0,.11-.08.17-.11s.11,0,.16,0,.1-.1.16-.12.1,0,.15,0,.09-.08.15-.11a1.35,1.35,0,0,1,.14,0c.06,0,.12-.08.19-.11l.15,0c.07,0,.12-.09.18-.11l.14,0c.06,0,.11-.08.17-.11s.1,0,.15,0,.11-.1.18-.12.12,0,.16,0,.11-.08.16-.11l.16,0c.06,0,.11-.08.16-.11l.13,0c.07,0,.11-.08.16-.11l.15,0c.06,0,.11-.08.17-.11s.1,0,.15,0,.11-.09.18-.12.11,0,.16,0,.1-.1.16-.12.11,0,.16,0,.1-.08.15-.11.12,0,.18,0,.1-.07.15-.09l.14,0c.11,0,.19-.15.32-.13s.18-.09.33-.15.1-.08.16-.11l.14,0c.07,0,.11-.09.18-.12s.12,0,.18,0,.1-.09.16-.12h.11c.1,0,.16-.11.23-.12a.87.87,0,0,1,.34,0c.08,0,.13.09.2.11a5.9,5.9,0,0,0,1.23,0c.19,0,.37-.08.49,0s-.2.17-.2.36c0,0-.09,0-.11.08.14.12.27,0,.39-.07s.27,0,.4,0,.16-.08.25-.11.34,0,.53-.05l.2-.08a1.82,1.82,0,0,1,.66,0c.05,0,.11,0,.14.08s-.16.05-.23.08-.1.08-.15.11l-.13,0c-.06,0-.11.08-.16.11l-.13,0c-.06,0-.1.09-.16.12s-.11,0-.15,0-.1.08-.15.11l-.13,0c-.07,0-.12.09-.19.12s-.19,0-.25.13-.21.09-.3.13l-.15,0c-.05,0-.1.07-.15.09l-.13,0c-.06,0-.09.09-.15.12s-.23,0-.31.13-.21.1-.32.15l-.13,0c-.05,0-.1.08-.15.11s-.23,0-.29.15-.22.11-.33.15-.08,0-.11,0-.09.08-.14.11-.24,0-.3.15a2,2,0,0,0-.49.21c0,.21.3.2.41.35l.11,0a1.18,1.18,0,0,0,.47.28c.3.26.72.4,1,.67.23.07.37.22.58.31a1.18,1.18,0,0,0,.23.15l.29.19c.06,0,.13,0,.19.08s.06.09.1.11.08,0,.11,0,.06.08.1.11.26.11.38.19.11.13.23.13.06.06.09.09c.23.09.39.24.61.33a.68.68,0,0,1,.14.19,2.1,2.1,0,0,1-.94.05c-.06,0-.11-.08-.18-.11a2.8,2.8,0,0,0-.54,0c-.2,0-.37-.12-.56-.13s-.49-.07-.6.07a.83.83,0,0,1,0,.31,1.25,1.25,0,0,1-.49,0c-.32,0-.64,0-1,0a1.07,1.07,0,0,1-.44,0c-.05,0-.09-.09-.15-.12s-.1,0-.13,0-.06-.08-.1-.11l-.1,0c-.06,0-.09-.08-.14-.11s-.1,0-.14,0-.14-.15-.24-.13-.07-.06-.09-.11c-.3-.11-.52-.32-.81-.44a2.41,2.41,0,0,0-.48-.29c-.1-.06-.22-.16-.34-.23l-.13,0c-.05,0-.09-.09-.14-.12s-.08,0-.11,0-.06-.08-.1-.11l-.14-.05-.33-.21s-.1,0-.14-.05-.05-.07-.09-.09-.09,0-.13,0l-.24-.15s-.08-.07-.11-.09-.08,0-.13,0-.09-.09-.13-.09-.11.07-.18.09-.16,0-.23,0-.15.1-.24.12-.14,0-.2,0-.12.09-.19.11-.15,0-.21,0-.12.08-.19.11-.17,0-.25,0-.12.09-.19.11-.15,0-.23,0-.09.08-.15.11-.18,0-.24.08c0,.59,0,1.29,0,1.82-.09.11-.2.06-.29.05a9.22,9.22,0,0,0-1.05,0c-.12,0-.23.06-.34.07a2.1,2.1,0,0,0-.55-.08c-.07,0-.12-.1-.19-.12s-.17,0-.25,0-.25-.19-.46-.12-.1.08-.15.11l-.14,0c-.06,0-.11.08-.16.11l-.11,0c-.08,0-.14.1-.19.12s-.09,0-.13,0-.09.1-.15.12a.66.66,0,0,1-.67-.19c0-.24.05-.47.08-.72s0-.55,0-.8c0-.05.06-.1.08-.16a2.53,2.53,0,0,0,0-.27c0-.05,0-.1.05-.16,0-.25,0-.55,0-.82,0-.09,0-.18.05-.27s0-.19,0-.28.05-.09.06-.15a2,2,0,0,0,0-.27c0-.37.07-.86.1-1.26,0-.08,0-.16,0-.24s.07-.14.08-.21,0-.46.1-.64c.32,0,.61.13.9,0,.13,0,.16-.16.37-.08,0,0,.06.07.11.09s.11,0,.16,0,.1.09.15.11.11,0,.15,0,.11.08.16.11l.16,0c.13.05.24.17.47.11.06,0,.09-.08.15-.11l.11,0c.05,0,.1-.08.16-.11l.14,0c.05,0,.09-.08.14-.11l.1,0a2.64,2.64,0,0,1,.47-.2,2.37,2.37,0,0,1,.57,0c.17,0,.19.38.15.67,0,.08-.06.16-.08.25,0,.42,0,.92,0,1.4A3,3,0,0,0,135.84,121.49Z"/><path class="cls-4" d="M120.69,124.81a1.2,1.2,0,0,1-.44,0c-.06,0-.1-.09-.16-.12s-.12,0-.18,0-.06-.06-.1-.08l-.14,0c-.05,0-.09-.08-.14-.11s-.13,0-.18,0-.13-.14-.33-.12-.14.09-.24.12l-.14,0c-.07,0-.11.1-.18.12s-.1,0-.15,0-.11.09-.18.12-.11,0-.16,0-.15.1-.2.11a2.76,2.76,0,0,1-.56-.05,1.76,1.76,0,0,1-.53-.08c-.05-.08,0-.16-.11-.21a1.23,1.23,0,0,0-.68,0c-.06,0-.12.07-.2.09a8.19,8.19,0,0,1-1,0c-.14,0-.26.09-.36.11a8.13,8.13,0,0,1-1,0c-.48,0-.95.1-1.38.13s-1,0-1.49,0c-.69,0-1.36,0-2,0s-1.33,0-2,0a3.17,3.17,0,0,1-.39-.09c-.14,0-.31,0-.42-.05s-.11-.1-.19-.12-.28,0-.34-.13-.2-.09-.31-.15-.12,0-.18-.08a3.61,3.61,0,0,1-.3-.23c-.19-.17-.35-.36-.52-.53,0-.12-.12-.18-.18-.28s0-.16-.08-.23a1.84,1.84,0,0,1-.11-.19,1.66,1.66,0,0,0-.14-.51,4.65,4.65,0,0,1,0-1.22c0-.07.06-.16.1-.23a3.11,3.11,0,0,1,.08-.61c0-.06.07-.11.09-.17s0-.22.06-.32.09-.15.11-.23,0-.22.06-.32.08-.12.11-.2.16-.42.27-.47a1.32,1.32,0,0,1,.52,0c.07,0,.13.1.2.12s.17,0,.24,0,.19.11.28.12.13-.1.22-.12.23,0,.34,0,.2-.12.3-.11.07,0,.14.08l.14.07c.18.12.3.24.48.37a.5.5,0,0,0,.51.12c.05,0,.09-.09.15-.11s.14,0,.21,0,.13-.08.2-.11.19,0,.28,0,.39-.22.62-.08c0,.09-.08.15-.11.23s0,.22-.09.33-.09.11-.11.17,0,.29-.13.4c-.07.3,0,.66-.11,1,0,.06-.06.12-.08.19a1.53,1.53,0,0,0,.1.73c0,.11,0,.22.06.31s.15.22.15.35a.88.88,0,0,1,.19.28c.09,0,.13.14.2.21s.25.13.34.24.24.1.38.13.22,0,.33,0,.17.1.27.12.44,0,.67,0,.19.09.3.11a10,10,0,0,0,1,0,6.72,6.72,0,0,0,1.11,0c.11,0,.21-.09.32-.11.38-.06.75,0,1.11,0a2.58,2.58,0,0,0,.33-.09,3.23,3.23,0,0,0,.6-.08,2.37,2.37,0,0,0,0-.67c0-.54.06-1.12,0-1.64,0-.08-.06-.16-.08-.24a7.62,7.62,0,0,1,0-1.13c0-.37,0-.74,0-1.08a1.34,1.34,0,0,1,.75-.05c.12,0,.19.17.33.15s.12.09.19.12.12.09.19.12.1,0,.15,0,.06.07.1.09.1,0,.15,0,.16.12.25.12.13-.08.21-.12a1.75,1.75,0,0,0,.23-.09l0,0h.06c.07,0,.13-.09.19-.12s.11,0,.15,0,.11-.09.19-.13l.11-.05a3.86,3.86,0,0,1,1.33-.07c.11,0,.31,0,.38,0s.16.64.18.89,0,.75,0,1.18,0,1,0,1.44c0,.21,0,.42,0,.59s-.05.13-.06.2,0,.14,0,.21,0,.15-.05.23c0,.3,0,.63,0,.92,0,.06,0,.13-.05.2S120.81,124.71,120.69,124.81Z"/><path class="cls-4" d="M94.78,118.67a10.27,10.27,0,0,0-.71.74s-.06,0-.09,0c-.59.65-1.24,1.22-1.82,1.88l-.1.05c-.17.25-.44.41-.61.67a2.83,2.83,0,0,0-.54.54,5.55,5.55,0,0,0-.7.69s0,0-.08,0c-.18.26-.44.43-.62.68l-.09,0c-.11.2-.33.29-.43.49s-.22.23-.37.31a9,9,0,0,0-1.34-.12c-.12,0-.23.1-.37.12s-.26,0-.39,0-.14.05-.21.05a1.84,1.84,0,0,1-.2-.05c-.08,0-.17,0-.24,0s-.16-.1-.24-.12a1.86,1.86,0,0,0-.2,0c-.12,0-.22-.11-.32-.13s-.18,0-.27,0-.15-.15-.32-.12-.08.07-.15.12-.23.09-.35.13-.12,0-.18,0-.13.12-.32.13-.73,0-.82-.07,0-.05,0-.07-.08,0-.1,0,0-.08-.06-.11-.14-.11-.2-.17-.12-.15-.18-.2-.08,0-.1-.05,0-.08-.06-.11-.07,0-.1-.05,0-.07-.05-.09-.23-.16-.3-.24,0-.09-.08-.12l-.18-.16c-.06-.05-.11-.12-.17-.17s-.07,0-.1-.05,0-.07-.05-.09-.14-.11-.2-.17l-.1-.09s0-.08-.08-.11-.08,0-.11-.07,0-.09-.06-.11-.08,0-.1,0,0-.08-.06-.11-.07,0-.09,0,0-.09-.08-.12-.09,0-.13-.08,0-.09-.08-.12-.1,0-.13-.08,0-.07-.05-.09-.07,0-.1-.05,0-.09-.06-.11-.08,0-.1,0,0-.08-.06-.11l-.19-.17-.18-.19s-.08,0-.11-.07,0-.09-.08-.12-.07,0-.1-.05,0-.06,0-.08-.07,0-.1-.05-.18-.2-.27-.29-.21-.17-.29-.25,0-.07-.05-.09-.08,0-.11-.05,0-.07-.05-.09-.14-.11-.2-.17l-.1-.09s0-.08-.08-.11-.08,0-.11-.07,0-.08-.06-.11-.07,0-.1-.05,0-.07-.05-.09-.06,0-.09,0-.05-.08-.09-.12l-.24-.21c-.09-.09-.17-.18-.28-.27s.17-.12.28-.11a2.8,2.8,0,0,1,.41.05c.06,0,.09.07.15.09s.28,0,.4,0,.13.09.2.11.27,0,.39,0,.11.07.17.09.29,0,.42,0,.18.16.37.12.15-.14.23-.25.17-.14.2-.27c.19-.07.27,0,.41.07a2.7,2.7,0,0,0,1,0c.17,0,.37-.22.61-.12.09,0,.21.27.28.35A.5.5,0,0,0,82,119a1.68,1.68,0,0,0,.37.44c0,.15.19.16.22.31.31.27.52.65.84.92,0,.15.2.17.23.33s.06.06.11.07a8.93,8.93,0,0,0,.87,1c0,.12.13.16.19.23s0,.06,0,.09.1.07.13.11,0,.08.05.11.09.05.13.09.12.23.25.28.32,0,.44,0,0,0,.09-.08l.1-.07s0-.08.06-.11a1.74,1.74,0,0,0,.37-.4,834,834,0,0,1,1.06-1.12,2.39,2.39,0,0,0,.52-.55c.24-.16.39-.43.62-.6,0,0,0-.06.05-.11a1.24,1.24,0,0,0,.38-.4,2.45,2.45,0,0,0,.53-.56c.09,0,.09-.09.15-.15s.08,0,.1-.05.18-.29.3-.35a3.55,3.55,0,0,1,1,0c.05,0,.09.06.13.07.06.2.22.29.27.51a.42.42,0,0,0,.43.11c.06,0,.1-.1.16-.12s.2,0,.3,0,.11-.07.18-.09.2,0,.29,0,.11-.07.16-.09.21,0,.3,0,.11-.11.2-.12a5.4,5.4,0,0,1,.56,0C94.37,118.6,94.65,118.56,94.78,118.67Z"/><path class="cls-4" d="M118.27,101.56a.51.51,0,0,1,0,.61c.09.21.16.44.41.49a.49.49,0,0,1,.06.12,1.34,1.34,0,0,1,.43.43h.19s.05.11.1.15.21,0,.27.05c.22-.08.22-.4.35-.59.16,0,.17-.26.33-.13,0,0,0,0,0,0a2.62,2.62,0,0,1-.38,1.12c0,.23-.17.34-.27.55,0,0,0,.11,0,.15s-.08.07-.11.12,0,.12-.09.17-.07.06-.1.09-.14.26-.22.35-.12.07-.13.15l-.08,0c0,.09-.11.15-.14.25a.7.7,0,0,0-.29.29s0,0-.09,0c-.12.2-.34.3-.43.53,0,0-.1,0-.13,0s-.21.11-.21.27c-.11,0-.16,0-.15.13s-.16,0-.18.08.11.09.16.05,0-.09.05-.13.15,0,.15-.12.08,0,.13,0,0-.09.06-.12.13,0,.16,0,.17-.14.21-.25.13-.07.2-.13.14,0,.15-.15l.14,0c.16-.21.42-.31.56-.55.07,0,.11,0,.13.05s-.17.21-.22.36,0,0-.08,0a1.82,1.82,0,0,1-.29.39c-.21,0-.2.28-.42.31,0,0,0,.09-.08.13s-.07,0-.11,0-.28.23-.38.39-.1,0-.13,0-.22.11-.25.25-.06,0-.11,0a.32.32,0,0,0-.08.12c-.13,0-.17.06-.22.13a1,1,0,0,1-.16,0s0,.09-.06.12a.3.3,0,0,0-.13,0c0,.14-.25.13-.3.27s-.11,0-.14,0-.28.12-.33.27c-.12,0-.21,0-.23.12s-.17,0-.16.11.23.07.23-.07c.09,0,.19,0,.28,0s.2-.12.25-.24c.15.06.25-.12.34-.16s.1,0,.14,0,.13-.17.24-.15,0-.08.07-.11.16-.18.34-.16.07-.09.11-.13a.46.46,0,0,0,.16,0,.64.64,0,0,0,.06-.12c.15,0,.14-.17.29-.16a.32.32,0,0,0,.08-.12l.14,0a.15.15,0,0,0,.06-.11c.2,0,.24-.25.43-.29a.2.2,0,0,0,.08-.12c.1,0,.13-.08.18-.15a.57.57,0,0,0,.31-.28s.06,0,.11,0c.11-.21.34-.31.44-.53l.09,0c.09-.09.13-.23.27-.28a2.46,2.46,0,0,1,.37-.44c0-.09.08-.13.1-.21l.09-.05a8.58,8.58,0,0,0,.56-1s.07-.07.13-.08a2.19,2.19,0,0,1,.28-.72,2.26,2.26,0,0,1,.23-.51c.18,0,.28.11.34.27s.43,0,.53-.05.21.3.09.4,0,.08,0,.13,0,.19,0,.29-.08.15-.1.23,0,.25-.09.36-.07.05-.09.09a.9.9,0,0,0,0,.15c-.09.28-.32.47-.38.73-.11.05-.14.18-.19.29s0,0-.06,0a3.47,3.47,0,0,1-.66.84s0,.07-.05.12-.17.17-.24.27-.2.25-.37.29-.26.24-.34.4c-.15,0-.16.16-.3.16a.67.67,0,0,0-.06.12.18.18,0,0,0-.16.15s-.05,0-.1,0c0,.14-.23.12-.27.27-.13,0-.14.08-.19.15h-.1c-.07.13-.26.13-.32.27s-.07,0-.11,0-.05.09-.09.13c-.2,0-.15.18-.33.15s0,.1-.09.12-.08,0-.13,0-.24.15-.3.28c-.16-.06-.2.08-.27.12s-.21,0-.2.13a.31.31,0,0,0-.29.16.17.17,0,0,0-.23.13c-.16-.06-.25.12-.35.15s-.07,0-.1,0-.09.09-.14.13-.26,0-.29.13a.25.25,0,0,0-.25.15c-.27,0-.29.16-.52.15-.07,0,0,.09-.11.12s-.37,0-.42.15a.4.4,0,0,0-.15,0s0,.08-.08.12-.2,0-.28,0-.06.12-.14.16a.71.71,0,0,0-.24,0c-.06,0-.09.11-.15.13s-.17,0-.22.07.07.08.08.15-.11.1-.14.19-.29.09-.32-.05.31.06.33-.11-.21-.15-.3-.09-.07.18-.15.2.07.11,0,.19-.25.09-.27-.05.12,0,.13-.09,0-.11-.1-.09a.8.8,0,0,1-.23.28c-.06-.06-.17-.21-.25-.08s.09.05.1.12-.18,0-.27.07,0,.09-.1.16-.18,0-.22-.05.09-.07.09-.16c-.19-.18-.17.26-.37.24s0-.11-.08-.12-.06.16-.11.21-.21,0-.3,0-.09.1-.16.15a3.13,3.13,0,0,0-.48,0c-.06,0-.09.08-.15.11a1.73,1.73,0,0,1-.43,0c-.08,0-.06.09-.14.12s-.37,0-.43.07a.3.3,0,0,0-.41.08c-.27,0-.44.07-.66.05-.15.14-.45.06-.68.09-.17.24-.7,0-.93.21a.32.32,0,0,0-.18,0c-.25,0-.53.07-.82,0-.05,0-.07,0-.11.05s-.07-.06-.15-.05-.1.1-.16.12-.09,0-.14,0c-.28,0-.65,0-1,0-.05,0-.05.08-.09.11s-.18-.18-.28,0c-.11,0-.26.08-.35,0a.24.24,0,0,1-.25,0c-.3.09-.8-.06-1.06.09,0,0-.06-.06-.1-.07-.21.06-.58-.07-.77.07-.21-.16-.27.12-.53.07a.27.27,0,0,1-.05-.11.39.39,0,0,0-.19,0s0,.09-.08.13-.12,0-.19,0-.07-.11-.14-.12-.1,0-.13.12c-.29.1-.52-.27-.66,0-.14,0-.32,0-.38-.08s-.07.08-.13.08-.08-.05-.14-.05-.09,0-.13,0-.08-.09-.15-.12a.25.25,0,0,0-.33.12c-.07,0-.07-.07-.13-.09s0,.06-.09.05a.29.29,0,0,0-.25-.08,12,12,0,0,1-1.39-.05.51.51,0,0,1-.18.05c-.06,0-.06-.1-.11-.13s-.12.08-.2.07-.05-.06-.1-.08c-.28-.09-.75.1-1-.05-.09.06-.22.07-.27,0s-.06.07-.11.08,0,0-.1-.05-.06,0-.1,0-.11-.13-.25-.09,0,0-.06,0-.06,0-.09,0a3.31,3.31,0,0,0-.45,0,.14.14,0,0,0-.27,0c-.1,0-.13-.08-.23-.09s-.23.09-.3-.07a.33.33,0,0,1-.39,0,.17.17,0,0,1-.31-.05c-.31,0-.65,0-.85-.11,0,0-.06,0-.09,0-.23-.15-.71,0-.86-.2-.16,0-.28,0-.43,0-.07-.23-.43-.1-.66-.15,0,0,0-.07-.06-.11a1.27,1.27,0,0,1-.63-.15c-.18,0-.27-.12-.43-.05s-.06-.07-.1-.09c-.23,0-.33-.06-.54,0s0-.1-.11-.13-.27,0-.32-.12c-.09.06-.11,0-.18-.05a.67.67,0,0,1-.33,0c-.06,0-.07-.14-.18-.11a.32.32,0,0,0-.05-.12c-.07,0-.06.11-.16.09,0-.2-.2-.3-.29-.13a.39.39,0,0,1-.41-.15.59.59,0,0,1-.25,0c0-.06,0-.09,0-.15s-.17-.18-.23-.2a1.57,1.57,0,0,0-.29,0c-.05,0-.07-.1-.13-.13h-.18c0-.14-.18-.15-.36-.15l-.08-.12c-.23,0-.32-.13-.52-.15s-.08-.1-.13-.13-.13,0-.16,0-.07-.11-.13-.13c-.25,0-.24-.18-.48-.15a.81.81,0,0,1-.06-.12.26.26,0,0,1-.27-.15c-.27.07-.21-.2-.43-.15,0-.13-.16-.14-.3-.15a.5.5,0,0,0-.43-.27s0-.09-.08-.13h-.14c-.06-.12-.22-.13-.28-.27s-.1,0-.11,0,0-.08-.08-.12-.17-.06-.21-.13h-.13c-.05,0-.07-.09-.1-.15s-.07,0-.13,0a.4.4,0,0,1-.06-.11,1.44,1.44,0,0,0-.17-.05c0-.13-.21-.08-.21-.23-.21,0-.23-.26-.43-.31,0,0,0-.1-.08-.12s-.06,0-.11,0-.15-.28-.29-.28a.49.49,0,0,1-.18-.25.26.26,0,0,0-.11,0c-.12-.2-.33-.3-.43-.52,0,0-.06,0-.09-.05-.1-.17-.27-.28-.34-.49a4.74,4.74,0,0,1-.68-.93c-.08-.3-.3-.56-.41-.85,0-.1,0-.2-.11-.27,0-.3-.12-.53-.15-.82.24-.23.8.15.92-.21h.25c0,.05.05.14.13.16a8.41,8.41,0,0,0,.49,1.06,5.6,5.6,0,0,1,.48.84s.08,0,.1.05,0,.13.08.19.07,0,.11.08,0,.06,0,.08.06,0,.08.05a2,2,0,0,0,.15.24s.06,0,.08,0,0,.13.14.13,0,.06,0,.11.16.17.23.27a.69.69,0,0,1,.3.29s.07,0,.1,0c.11.24.4.27.49.53.17,0,.25.16.34.28H80a.29.29,0,0,1,.09.13l.13,0c0,.13.22.11.24.25s.18.16.34.16a.6.6,0,0,1,.05.12.51.51,0,0,0,.15,0c0,.14.24.12.27.27h.16c0,.16.28.11.33.27.24-.05.19.2.43.15,0,0,0,.11.09.13s.1,0,.18,0a.3.3,0,0,1,.06.13,1,1,0,0,0,.18,0,.29.29,0,0,0,.09.13c.26,0,.24.21.51.15a.35.35,0,0,0,.1.13h.19c0,.16.27.17.34.08s-.16-.09-.28-.09,0-.08-.06-.11-.13,0-.18,0,0-.1-.09-.11-.21-.17-.42-.16a.73.73,0,0,0-.06-.12s-.11,0-.16,0a.27.27,0,0,0-.31-.13.42.42,0,0,1-.06-.13s-.12,0-.15,0,0-.07-.08-.11l-.15,0c-.06-.13-.25-.13-.3-.27-.22,0-.28-.16-.39-.28H81c0-.14-.19-.13-.22-.27a.42.42,0,0,0-.13,0,.27.27,0,0,1-.06-.12s-.07,0-.13,0-.2-.11-.22-.25-.11,0-.15,0-.12-.16-.15-.27c-.21,0-.19-.26-.37-.29,0-.06-.06-.16,0-.21.16.1.34.17.42.36h.18c0,.13.2.14.24.27s.07,0,.11,0,.06.09.1.13.14.18.32.16a.19.19,0,0,0,.19.13c0,.13.16.14.21.24s.19.05.28,0,0,0,0,0-.17,0-.23-.09c-.12-.26-.44-.29-.56-.55h-.11c0-.07-.06-.14-.16-.13a.49.49,0,0,1-.06-.12c-.17-.06-.21-.25-.38-.31a.77.77,0,0,0-.06-.12l-.1,0a.15.15,0,0,0-.13-.13c0-.07,0-.13-.13-.13a1.83,1.83,0,0,0-.47-.59.5.5,0,0,0-.18-.25c-.16-.24-.29-.5-.46-.73,0-.05,0-.09,0-.15a1.15,1.15,0,0,1-.2-.41c0-.05-.07-.1-.09-.16s0-.22-.08-.33a.82.82,0,0,1,0-.55h.11c.07.18.22.27.33.41s.09,0,.15,0a.77.77,0,0,1,.14.13c.27.08.42-.07.58-.15,0-.08.1-.08.14-.13s.09-.17.15-.25.08,0,.1-.09,0-.1,0-.15.05-.05.08-.09a3,3,0,0,1,.15-.35s.15-.17.19-.17.12.16.25.15.06.06.06.12c.19,0,.2.27.39.31.11.25.31.41.42.65a1.3,1.3,0,0,1,.33.43c.2.11.28.34.48.45a1.88,1.88,0,0,0,.16.25l.11,0c0,.08.08.12.15.13.07.2.29.23.38.4a.16.16,0,0,1,.1,0c.12.14.3.23.41.39.13,0,.15.08.2.13s.08,0,.14,0c0,.15.23.13.28.27a.4.4,0,0,0,.15,0s0,.09.06.13.08,0,.14,0,0,.08.06.12a.49.49,0,0,0,.15,0s0,.1.09.13a1.16,1.16,0,0,1,.21,0,.85.85,0,0,0,.06.12c.07,0,.09,0,.15,0s0,.1.09.13h.16c.05.09.11.18.25.13.08.15.33.13.4.28s.15,0,.19,0,.2.15.39.13c0,0,.05.1.09.13.25,0,.26.21.49.15,0,0,.06.11.11.13s.17,0,.24,0,.08.1.15.12H88a.84.84,0,0,0,.58.15s.06.1.1.13h.25s.06.08.09.12.23,0,.4,0c.05.17.27.09.42.15s.08.1.14.12a1.51,1.51,0,0,1,.37,0c.1.19.44.12.7.15a.69.69,0,0,0,.06.12c.17,0,.37,0,.47.08.1-.06.15,0,.23.05s.27,0,.38,0,.07.07.13.09c.25.11.69-.07.84.17a3.54,3.54,0,0,1,.47,0c.15,0,.35,0,.42,0s.08.1.13.12c.24.08.64-.13.77.11a.12.12,0,0,0,.08,0c.32.15.9,0,1.2.13.11-.12.24,0,.37,0a.58.58,0,0,0,.56,0,.59.59,0,0,1,.11.05c1.49,0,3.12,0,4.61,0,.06,0,.08-.09.14-.12a1.19,1.19,0,0,0,.34,0,6.5,6.5,0,0,0,.86,0c.08,0,.13-.06.25-.08s.14-.05.19-.05c.28,0,.7.08.84-.11.06,0,.06.06.11.05s.06-.06.1-.08a5.88,5.88,0,0,0,.76,0c.07,0,.07-.1.13-.12a3.62,3.62,0,0,0,.49,0c.05,0,.08-.07.14-.09.28-.11.65.06.75-.17.19-.06.37,0,.55,0s.09-.1.15-.12.23,0,.33,0,.19-.12.3-.13h.09c.13,0,.24-.13.37-.15a2,2,0,0,0,.23,0c.06,0,.1-.11.16-.13s.15,0,.21,0,.12-.05.21-.13.21,0,.3,0,.06-.1.11-.12.16,0,.25,0,.09-.11.17-.13.18,0,.28,0,.06-.1.1-.13c.28,0,.34-.14.57-.15a.57.57,0,0,1,.38-.13s.05-.1.09-.13.18-.06.27-.11.33,0,.38-.16a.46.46,0,0,0,.28-.15.76.76,0,0,0,.18,0s.05-.09.09-.13.11,0,.14,0,0-.09.11-.12.11,0,.16,0,.07-.1.13-.13h.14c.08-.12.25-.13.29-.28.15,0,.23,0,.27-.13.13,0,.15-.06.19-.12s.13-.09.2-.15l.09,0c.08,0,.07-.16.21-.13,0-.13.23-.13.27-.27h.11c.1-.16.28-.24.38-.4s.08,0,.11,0c.21-.3.55-.47.73-.79a.2.2,0,0,1,.09,0,1.82,1.82,0,0,1,.38-.44,3.26,3.26,0,0,1,.33-.52.1.1,0,0,1,.08,0c.13-.29.33-.51.47-.8C118,101.68,118.06,101.48,118.27,101.56Zm-3,7.34c-.1,0-.22,0-.23.08s.26,0,.36,0,.16-.06.15-.19A.18.18,0,0,0,115.27,108.91Zm-.43.23s.08,0,.08,0a.1.1,0,0,0-.08,0ZM84,109.25c0,.06.15.08.19,0S84,109.15,84,109.25Zm30.46,0c.07.05.3,0,.23-.09S114.38,109.14,114.41,109.28Zm-.33.11a.12.12,0,0,0,.23,0C114.27,109.29,114.11,109.29,114.08,109.38Zm-29.82,0c0,.1.12.09.18.05S84.3,109.32,84.26,109.36Zm.3.19c0,.08.23,0,.27,0S84.55,109.39,84.56,109.55Zm29.28,0s.1,0,.14,0a.24.24,0,0,0,0-.09A.09.09,0,0,0,113.84,109.56Zm-27.7.53a.11.11,0,0,0,.13,0C86.29,110,86.14,110,86.14,110.09Zm-1,1a.08.08,0,0,0-.06,0C85.07,111.09,85.16,111.08,85.15,111Z"/></svg>